<svg preserveAspectRatio="none" width="100%" height="100%" overflow="visible" style="display: block;" viewBox="0 0 10.5 12" fill="none" xmlns="http://www.w3.org/2000/svg">
<path id="Vector" d="M2.25 3C2.25 1.3432 3.59297 0 5.25 0C6.90703 0 8.25 1.3432 8.25 3V3.375C8.25 5.03203 6.90703 6.375 5.25 6.375C3.59297 6.375 2.25 5.03203 2.25 3.375V3ZM6.96797 2.25H6.9375C6.45703 2.25 6.03047 2.025 5.75625 1.67484C5.43516 2.24227 4.82344 2.625 4.125 2.625H3.4125C3.38906 2.74687 3.375 2.87109 3.375 3V3.375C3.375 4.41094 4.21406 5.25 5.25 5.25C6.28594 5.25 7.125 4.41094 7.125 3.375V3C7.125 2.73281 7.06875 2.47969 6.96797 2.25ZM6.96563 7.50703C8.93906 7.63359 10.5 9.27422 10.5 11.2805C10.5 11.6766 10.1766 12 9.78047 12H0.72C0.322266 12 0 11.6766 0 11.2805C0 9.27422 1.56141 7.63359 3.53438 7.50703L5.25 9.9375L6.96563 7.50703Z" fill="var(--fill-0, #008292)"/>
</svg>
